<svg id="Layer_1" data-name="Layer 1" xmlns="http://www.w3.org/2000/svg" viewBox="0 0 621 1072.13"><defs><style>.cls-1{fill:gray;}.cls-1,.cls-11,.cls-12,.cls-2,.cls-22,.cls-5,.cls-6,.cls-7{stroke:#000;}.cls-12,.cls-2,.cls-22,.cls-6{fill:none;}.cls-2{stroke-dasharray:5 5;}.cls-13,.cls-18,.cls-3,.cls-30{isolation:isolate;}.cls-3{font-size:12px;}.cls-13,.cls-3{font-family:Helvetica-Light, Helvetica;font-weight:300;}.cls-4{letter-spacing:0.03em;}.cls-5,.cls-7{fill:#dcdcdc;}.cls-5,.cls-6{stroke-width:2px;}.cls-7{stroke-width:1.5px;}.cls-8{letter-spacing:0.14em;}.cls-9{letter-spacing:0.04em;}.cls-10{letter-spacing:0.01em;}.cls-13,.cls-18,.cls-30{font-size:8px;}.cls-14{letter-spacing:0.11em;}.cls-15{letter-spacing:0.11em;}.cls-16{letter-spacing:0.15em;}.cls-17{letter-spacing:0.15em;}.cls-18{font-family:Helvetica-Bold, Helvetica;font-weight:700;}.cls-19{letter-spacing:0.07em;}.cls-20{letter-spacing:0.01em;}.cls-21{letter-spacing:0.06em;}.cls-22{stroke-dasharray:2 2;}.cls-23{letter-spacing:-0.02em;}.cls-24{letter-spacing:0.59em;}.cls-25{letter-spacing:0.01em;}.cls-26{letter-spacing:0.01em;}.cls-27{letter-spacing:0.23em;}.cls-28{letter-spacing:0.23em;}.cls-29{letter-spacing:0.08em;}.cls-30{font-family:Helvetica-Oblique, Helvetica;font-style:oblique;}.cls-31{letter-spacing:0.14em;}.cls-32{letter-spacing:1.03em;}.cls-33{letter-spacing:0.47em;}.cls-34{letter-spacing:0.84em;}.cls-35{letter-spacing:0em;}.cls-36{letter-spacing:0.05em;}.cls-37{letter-spacing:0.05em;}.cls-38{letter-spacing:0.12em;}.cls-39{letter-spacing:0.12em;}.cls-40{letter-spacing:0.15em;}.cls-41{letter-spacing:0.15em;}.cls-42{letter-spacing:0.21em;}.cls-43{letter-spacing:0.21em;}.cls-44{letter-spacing:0.23em;}.cls-45{letter-spacing:0.35em;}.cls-46{letter-spacing:0.5em;}.cls-47{letter-spacing:0.04em;}.cls-48{letter-spacing:0.04em;}.cls-49{letter-spacing:0.07em;}.cls-50{letter-spacing:0.08em;}.cls-51{letter-spacing:0.64em;}.cls-52{letter-spacing:0.25em;}.cls-53{letter-spacing:0.2em;}.cls-54{letter-spacing:0.2em;}.cls-55{letter-spacing:0.48em;}.cls-56{letter-spacing:0.11em;}.cls-57{letter-spacing:0.13em;}.cls-58{letter-spacing:0.13em;}.cls-59{letter-spacing:0.17em;}.cls-60{letter-spacing:0.09em;}.cls-61{letter-spacing:0.33em;}.cls-62{letter-spacing:0.33em;}.cls-63{letter-spacing:0.56em;}.cls-64{letter-spacing:0.13em;}.cls-65{letter-spacing:0.13em;}</style></defs><title>P2P</title><rect class="cls-1" x="155" y="112.13" width="10" height="440"/><rect class="cls-1" x="155" y="576.13" width="10" height="478"/><rect class="cls-1" x="311" y="156.13" width="10" height="295"/><rect class="cls-1" x="311" y="657.13" width="10" height="363"/><rect class="cls-1" x="467" y="224.13" width="10" height="149"/><rect class="cls-1" x="467" y="762.13" width="10" height="173"/><line class="cls-2" x1="19" y1="76.13" x2="19" y2="1072.13"/><line class="cls-2" x1="159.5" y1="76.13" x2="159.5" y2="1072.13"/><line class="cls-2" x1="315.5" y1="76.13" x2="315.5" y2="1072.13"/><line class="cls-2" x1="471.5" y1="76.13" x2="471.5" y2="1072.13"/><line class="cls-2" x1="607" y1="76.13" x2="607" y2="1072.13"/><text class="cls-3" transform="translate(0 73.6)"><tspan class="cls-4">Paye</tspan><tspan x="28" y="0">r</tspan></text><circle class="cls-5" cx="19" cy="9" r="8"/><path class="cls-6" d="M124.73,67V94m-13-19h26m-13,19-13,15m13-15,13,15" transform="translate(-105.73 -50)"/><rect class="cls-7" x="132.5" y="47" width="55" height="28.13"/><text class="cls-3" transform="translate(139.5 65.6)">MMO<tspan class="cls-8" x="29.33" y="0"> </tspan><tspan x="34.33" y="0">1</tspan></text><rect class="cls-7" x="282.5" y="47" width="67" height="28.13"/><text class="cls-3" transform="translate(289.5 65.6)"><tspan class="cls-9">Mojaloo</tspan><tspan x="45.67" y="0">p</tspan></text><rect class="cls-7" x="444.5" y="47" width="55" height="28.13"/><text class="cls-3" transform="translate(451.5 65.6)">MMO<tspan class="cls-8" x="29.33" y="0"> </tspan><tspan x="34.33" y="0">2</tspan></text><text class="cls-3" transform="translate(587 73.6)"><tspan class="cls-10">Paye</tspan><tspan x="27.33" y="0">e</tspan></text><circle class="cls-5" cx="607" cy="9" r="8"/><path class="cls-6" d="M712.73,67V94m-13-19h26m-13,19-13,15m13-15,13,15" transform="translate(-105.73 -50)"/><rect class="cls-1" x="155" y="112.13" width="10" height="440"/><rect class="cls-1" x="155" y="576.13" width="10" height="478"/><rect class="cls-1" x="311" y="156.13" width="10" height="295"/><rect class="cls-1" x="311" y="657.13" width="10" height="363"/><rect class="cls-1" x="467" y="224.13" width="10" height="149"/><rect class="cls-1" x="467" y="762.13" width="10" height="173"/><polygon class="cls-11" points="143 108.13 153 112.13 143 116.13 143 108.13"/><line class="cls-12" x1="19" y1="112.13" x2="149" y2="112.13"/><text class="cls-13" transform="translate(52 97.87)">I<tspan class="cls-14" x="2.22" y="0"> </tspan><tspan x="5.29" y="0">would</tspan><tspan class="cls-14" x="26.63" y="0"> </tspan><tspan x="29.7" y="0">like</tspan><tspan class="cls-15" x="41.7" y="0"> </tspan><tspan x="44.77" y="0">Payee</tspan></text><text class="cls-13" transform="translate(52 107.87)">to<tspan class="cls-16" x="6.67" y="0"> </tspan><tspan x="10.11" y="0">receive</tspan><tspan class="cls-17" x="36.34" y="0"> </tspan><tspan x="39.78" y="0">100</tspan><tspan class="cls-16" x="53.12" y="0"> </tspan><tspan x="56.56" y="0">USD</tspan></text><polygon class="cls-11" points="299 152.13 309 156.13 299 160.13 299 152.13"/><line class="cls-12" x1="165" y1="156.13" x2="305" y2="156.13"/><text class="cls-18" transform="translate(210 131.87)"><tspan class="cls-19">POST/quote</tspan><tspan x="51.55" y="0">s</tspan></text><text class="cls-13" transform="translate(195 141.87)"><tspan class="cls-20">amountType=RECEIVE</tspan><tspan x="83.78" y="0">,</tspan></text><text class="cls-13" transform="translate(211.5 151.87)"><tspan class="cls-21">amount=100</tspan><tspan x="50.34" y="0">)</tspan></text><polygon class="cls-11" points="176 176.13 166 180.13 176 184.13 176 176.13"/><line class="cls-22" x1="170" y1="180.13" x2="310" y2="180.13"/><text class="cls-18" transform="translate(195.5 175.87)">HTT<tspan class="cls-23" x="15.55" y="0">P</tspan><tspan class="cls-24" x="20.75" y="0"> </tspan><tspan x="27.65" y="0">202</tspan></text><text class="cls-13" transform="translate(239.5 175.87)"><tspan class="cls-25">(Accepted</tspan><tspan x="38.34" y="0">)</tspan></text><polygon class="cls-11" points="455 220.13 465 224.13 455 228.13 455 220.13"/><line class="cls-12" x1="321" y1="224.13" x2="461" y2="224.13"/><text class="cls-18" transform="translate(366 199.87)"><tspan class="cls-19">POST/quote</tspan><tspan x="51.55" y="0">s</tspan></text><text class="cls-13" transform="translate(349.5 209.87)"><tspan class="cls-26">(amountType=RECEIVE</tspan><tspan x="86.78" y="0">,</tspan></text><text class="cls-13" transform="translate(367.5 219.87)"><tspan class="cls-21">amount=100</tspan><tspan x="50.34" y="0">)</tspan></text><polygon class="cls-11" points="332 244.13 322 248.13 332 252.13 332 244.13"/><line class="cls-22" x1="326" y1="248.13" x2="466" y2="248.13"/><text class="cls-18" transform="translate(351.5 243.87)">HTT<tspan class="cls-23" x="15.55" y="0">P</tspan><tspan class="cls-24" x="20.75" y="0"> </tspan><tspan x="27.65" y="0">202</tspan></text><text class="cls-13" transform="translate(395.5 243.87)"><tspan class="cls-25">(Accepted</tspan><tspan x="38.34" y="0">)</tspan></text><line class="cls-12" x1="477" y1="282.13" x2="519" y2="282.13"/><line class="cls-12" x1="519" y1="282.13" x2="519" y2="295.13"/><line class="cls-12" x1="478" y1="295.13" x2="519" y2="295.13"/><polygon class="cls-11" points="488 291.13 478 295.13 488 299.13 488 291.13"/><text class="cls-13" transform="translate(484 267.87)">Commission<tspan class="cls-27" x="44" y="0"> </tspan><tspan x="48.03" y="0">is</tspan><tspan class="cls-28" x="53.8" y="0"> </tspan><tspan x="57.83" y="0">1</tspan><tspan class="cls-27" x="62.28" y="0"> </tspan><tspan x="66.31" y="0">USD</tspan><tspan class="cls-27" x="82.75" y="0"> </tspan><tspan x="86.78" y="0">in</tspan></text><text class="cls-13" transform="translate(484 277.87)">Payee FSP for P2P</text><polygon class="cls-11" points="332 345.13 322 349.13 332 353.13 332 345.13"/><line class="cls-12" x1="326" y1="349.13" x2="466" y2="349.13"/><text class="cls-18" transform="translate(357 314.87)"><tspan class="cls-29">PUT/quote</tspan><tspan x="45.55" y="0">s</tspan></text><text class="cls-30" transform="translate(407 314.87)"><tspan class="cls-31">/&lt;ID</tspan><tspan x="19.33" y="0">&gt;</tspan></text><text class="cls-13" transform="translate(345 324.87)">transferAmount=99<tspan class="cls-32" x="68.87" y="0"> </tspan><tspan x="79.34" y="0">USD,</tspan></text><text class="cls-13" transform="translate(333 334.87)">payeeReceiveAmount=100<tspan class="cls-33" x="97.33" y="0"> </tspan><tspan x="103.34" y="0">USD,</tspan></text><text class="cls-13" transform="translate(342 344.87)">mmo2Commission=1<tspan class="cls-34" x="75.95" y="0"> </tspan><tspan x="84.9" y="0">USD)</tspan></text><polygon class="cls-11" points="460 369.13 470 373.13 460 377.13 460 369.13"/><line class="cls-22" x1="321" y1="373.13" x2="466" y2="373.13"/><text class="cls-18" transform="translate(366 368.87)">HTT<tspan class="cls-23" x="15.55" y="0">P</tspan><tspan class="cls-24" x="20.75" y="0"> </tspan><tspan x="27.65" y="0">200</tspan></text><text class="cls-13" transform="translate(410 368.87)"><tspan class="cls-35">(OK</tspan><tspan x="14.34" y="0">)</tspan></text><polygon class="cls-11" points="176 423.13 166 427.13 176 431.13 176 423.13"/><line class="cls-22" x1="170" y1="427.13" x2="310" y2="427.13"/><text class="cls-18" transform="translate(201 392.87)"><tspan class="cls-29">PUT/quote</tspan><tspan x="45.55" y="0">s</tspan></text><text class="cls-30" transform="translate(251 392.87)"><tspan class="cls-31">/&lt;ID</tspan><tspan x="19.33" y="0">&gt;</tspan></text><text class="cls-13" transform="translate(189 402.87)">transferAmount=99<tspan class="cls-32" x="68.87" y="0"> </tspan><tspan x="79.34" y="0">USD,</tspan></text><text class="cls-13" transform="translate(177 412.87)">payeeReceiveAmount=100<tspan class="cls-33" x="97.33" y="0"> </tspan><tspan x="103.34" y="0">USD,</tspan></text><text class="cls-13" transform="translate(186 422.87)">mmo2Commission=1<tspan class="cls-34" x="75.95" y="0"> </tspan><tspan x="84.9" y="0">USD)</tspan></text><polygon class="cls-11" points="304 447.13 314 451.13 304 455.13 304 447.13"/><line class="cls-22" x1="165" y1="451.13" x2="310" y2="451.13"/><text class="cls-18" transform="translate(210 446.87)">HTT<tspan class="cls-23" x="15.55" y="0">P</tspan><tspan class="cls-24" x="20.75" y="0"> </tspan><tspan x="27.65" y="0">200</tspan></text><text class="cls-13" transform="translate(254 446.87)"><tspan class="cls-35">(OK</tspan><tspan x="14.34" y="0">)</tspan></text><line class="cls-12" x1="165" y1="495.13" x2="207" y2="495.13"/><line class="cls-12" x1="207" y1="495.13" x2="207" y2="508.13"/><line class="cls-12" x1="166" y1="508.13" x2="207" y2="508.13"/><polygon class="cls-11" points="176 504.13 166 508.13 176 512.13 176 504.13"/><text class="cls-13" transform="translate(172 470.87)">Payer<tspan class="cls-36" x="20.45" y="0"> </tspan><tspan x="23.07" y="0">FSP</tspan><tspan class="cls-37" x="37.3" y="0"> </tspan><tspan x="39.92" y="0">keeps</tspan><tspan class="cls-36" x="61.7" y="0"> </tspan><tspan x="64.33" y="0">commission</tspan></text><text class="cls-13" transform="translate(172 480.87)">as<tspan class="cls-38" x="8.45" y="0"> </tspan><tspan x="11.6" y="0">fee,</tspan><tspan class="cls-39" x="24.94" y="0"> </tspan><tspan x="28.09" y="0">Payer</tspan><tspan class="cls-38" x="48.54" y="0"> </tspan><tspan x="51.69" y="0">should</tspan><tspan class="cls-38" x="75.7" y="0"> </tspan><tspan x="78.85" y="0">also</tspan><tspan class="cls-39" x="93.52" y="0"> </tspan><tspan x="96.67" y="0">pay</tspan></text><text class="cls-13" transform="translate(172 490.87)">fee<tspan class="cls-40" x="11.12" y="0"> </tspan><tspan x="14.56" y="0">of</tspan><tspan class="cls-41" x="21.23" y="0"> </tspan><tspan x="24.67" y="0">1</tspan><tspan class="cls-40" x="29.12" y="0"> </tspan><tspan x="32.56" y="0">USD</tspan></text><polygon class="cls-11" points="30 548.13 20 552.13 30 556.13 30 548.13"/><line class="cls-12" x1="24" y1="552.13" x2="159" y2="552.13"/><text class="cls-13" transform="translate(33.5 527.87)">Transferirg<tspan class="cls-42" x="38.67" y="0"> </tspan><tspan x="42.55" y="0">100USD</tspan><tspan class="cls-42" x="72.34" y="0"> </tspan><tspan x="76.22" y="0">to</tspan><tspan class="cls-43" x="82.89" y="0"> </tspan><tspan x="86.77" y="0">Payee</tspan></text><text class="cls-13" transform="translate(47 537.87)">will<tspan class="cls-44" x="11.1" y="0"> </tspan><tspan x="15.13" y="0">cost</tspan><tspan class="cls-44" x="30.25" y="0"> </tspan><tspan x="34.27" y="0">you</tspan><tspan class="cls-44" x="47.17" y="0"> </tspan><tspan x="51.19" y="0">101</tspan><tspan class="cls-44" x="64.54" y="0"> </tspan><tspan x="68.56" y="0">USD</tspan></text><text class="cls-13" transform="translate(64.5 547.87)">including<tspan class="cls-45" x="32.89" y="0"> </tspan><tspan x="37.88" y="0">fees</tspan></text><polygon class="cls-11" points="143 572.13 153 576.13 143 580.13 143 572.13"/><line class="cls-12" x1="19" y1="576.13" x2="149" y2="576.13"/><text class="cls-13" transform="translate(49 571.87)">Perform<tspan class="cls-46" x="28" y="0"> </tspan><tspan x="34.2" y="0">Transaction</tspan></text><line class="cls-12" x1="165" y1="610.13" x2="207" y2="610.13"/><line class="cls-12" x1="207" y1="610.13" x2="207" y2="623.13"/><line class="cls-12" x1="166" y1="623.13" x2="207" y2="623.13"/><polygon class="cls-11" points="176 619.13 166 623.13 176 627.13 176 619.13"/><text class="cls-13" transform="translate(172 595.87)">Reserve<tspan class="cls-47" x="29.34" y="0"> </tspan><tspan x="31.87" y="0">99</tspan><tspan class="cls-47" x="40.77" y="0"> </tspan><tspan x="43.3" y="0">USD</tspan><tspan class="cls-48" x="59.74" y="0"> </tspan><tspan x="62.27" y="0">from</tspan><tspan class="cls-47" x="78.27" y="0"> </tspan><tspan x="80.8" y="0">Payer</tspan><tspan class="cls-47" x="101.25" y="0"> </tspan><tspan x="103.78" y="0">FSP</tspan></text><text class="cls-13" transform="translate(172 605.87)">account<tspan class="cls-49" x="28.91" y="0"> </tspan><tspan x="31.68" y="0">to</tspan><tspan class="cls-49" x="38.35" y="0"> </tspan><tspan x="41.11" y="0">Payee</tspan><tspan class="cls-49" x="63.34" y="0"> </tspan><tspan x="66.1" y="0">FSP</tspan><tspan class="cls-49" x="80.33" y="0"> </tspan><tspan x="83.09" y="0">account</tspan></text><polygon class="cls-11" points="299 653.13 309 657.13 299 661.13 299 653.13"/><line class="cls-12" x1="165" y1="657.13" x2="305" y2="657.13"/><text class="cls-18" transform="translate(204.5 642.87)"><tspan class="cls-50">POST/transfer</tspan><tspan x="62.55" y="0">s</tspan></text><text class="cls-13" transform="translate(203 652.87)">(amount=99<tspan class="cls-51" x="43.52" y="0"> </tspan><tspan x="50.9" y="0">USD)</tspan></text><polygon class="cls-11" points="176 677.13 166 681.13 176 685.13 176 677.13"/><line class="cls-22" x1="170" y1="681.13" x2="310" y2="681.13"/><text class="cls-18" transform="translate(195.5 676.87)">HTT<tspan class="cls-23" x="15.55" y="0">P</tspan><tspan class="cls-24" x="20.75" y="0"> </tspan><tspan x="27.65" y="0">202</tspan></text><text class="cls-13" transform="translate(239.5 676.87)"><tspan class="cls-25">(Accepted</tspan><tspan x="38.34" y="0">)</tspan></text><line class="cls-12" x1="321" y1="715.13" x2="363" y2="715.13"/><line class="cls-12" x1="363" y1="715.13" x2="363" y2="728.13"/><line class="cls-12" x1="322" y1="728.13" x2="363" y2="728.13"/><polygon class="cls-11" points="332 724.13 322 728.13 332 732.13 332 724.13"/><text class="cls-13" transform="translate(328 700.87)">Reserve<tspan class="cls-47" x="29.34" y="0"> </tspan><tspan x="31.87" y="0">99</tspan><tspan class="cls-47" x="40.77" y="0"> </tspan><tspan x="43.3" y="0">USD</tspan><tspan class="cls-48" x="59.74" y="0"> </tspan><tspan x="62.27" y="0">from</tspan><tspan class="cls-47" x="78.27" y="0"> </tspan><tspan x="80.8" y="0">Payer</tspan><tspan class="cls-47" x="101.25" y="0"> </tspan><tspan x="103.78" y="0">FSP</tspan></text><text class="cls-13" transform="translate(328 710.87)">account<tspan class="cls-49" x="28.91" y="0"> </tspan><tspan x="31.68" y="0">to</tspan><tspan class="cls-49" x="38.35" y="0"> </tspan><tspan x="41.11" y="0">Payee</tspan><tspan class="cls-49" x="63.34" y="0"> </tspan><tspan x="66.1" y="0">FSP</tspan><tspan class="cls-49" x="80.33" y="0"> </tspan><tspan x="83.09" y="0">account</tspan></text><polygon class="cls-11" points="455 758.13 465 762.13 455 766.13 455 758.13"/><line class="cls-12" x1="321" y1="762.13" x2="461" y2="762.13"/><text class="cls-18" transform="translate(360.5 747.87)"><tspan class="cls-50">POST/transfer</tspan><tspan x="62.55" y="0">s</tspan></text><text class="cls-13" transform="translate(359 757.87)">(amount=99<tspan class="cls-51" x="43.52" y="0"> </tspan><tspan x="50.9" y="0">USD)</tspan></text><polygon class="cls-11" points="332 782.13 322 786.13 332 790.13 332 782.13"/><line class="cls-22" x1="326" y1="786.13" x2="466" y2="786.13"/><text class="cls-18" transform="translate(351.5 781.87)">HTT<tspan class="cls-23" x="15.55" y="0">P</tspan><tspan class="cls-24" x="20.75" y="0"> </tspan><tspan x="27.65" y="0">202</tspan></text><text class="cls-13" transform="translate(395.5 781.87)"><tspan class="cls-25">(Accepted</tspan><tspan x="38.34" y="0">)</tspan></text><line class="cls-12" x1="477" y1="840.13" x2="519" y2="840.13"/><line class="cls-12" x1="519" y1="840.13" x2="519" y2="853.13"/><line class="cls-12" x1="478" y1="853.13" x2="519" y2="853.13"/><polygon class="cls-11" points="488 849.13 478 853.13 488 857.13 488 849.13"/><text class="cls-13" transform="translate(484 805.87)">Transfer<tspan class="cls-52" x="29.34" y="0"> </tspan><tspan x="33.54" y="0">99</tspan><tspan class="cls-52" x="42.43" y="0"> </tspan><tspan x="46.62" y="0">USD</tspan><tspan class="cls-52" x="63.06" y="0"> </tspan><tspan x="67.25" y="0">from</tspan><tspan class="cls-52" x="83.25" y="0"> </tspan><tspan x="87.44" y="0">Switch</tspan></text><text class="cls-13" transform="translate(484 815.87)">account<tspan class="cls-53" x="28.91" y="0"> </tspan><tspan x="32.77" y="0">and</tspan><tspan class="cls-54" x="46.55" y="0"> </tspan><tspan x="50.41" y="0">1</tspan><tspan class="cls-53" x="54.85" y="0"> </tspan><tspan x="58.71" y="0">USD</tspan><tspan class="cls-53" x="75.15" y="0"> </tspan><tspan x="79" y="0">from</tspan></text><text class="cls-13" transform="translate(484 825.87)">comission<tspan class="cls-55" x="36.01" y="0"> </tspan><tspan x="42.09" y="0">account</tspan></text><text class="cls-13" transform="translate(484 835.87)">to<tspan class="cls-56" x="6.67" y="0"> </tspan><tspan x="9.76" y="0">Payee</tspan><tspan class="cls-56" x="32" y="0"> </tspan><tspan x="35.09" y="0">account</tspan></text><polygon class="cls-11" points="595 883.13 605 887.13 595 891.13 595 883.13"/><line class="cls-12" x1="477" y1="887.13" x2="601" y2="887.13"/><text class="cls-13" transform="translate(489.5 872.87)">You<tspan class="cls-57" x="13.78" y="0"> </tspan><tspan x="17.03" y="0">have</tspan><tspan class="cls-58" x="34.37" y="0"> </tspan><tspan x="37.61" y="0">received</tspan><tspan class="cls-57" x="68.73" y="0"> </tspan><tspan x="71.98" y="0">100</tspan><tspan class="cls-57" x="85.32" y="0"> </tspan><tspan x="88.56" y="0">USD</tspan></text><text class="cls-13" transform="translate(522 882.87)">from<tspan class="cls-59" x="16" y="0"> </tspan><tspan x="19.55" y="0">Payer</tspan></text><polygon class="cls-11" points="332 907.13 322 911.13 332 915.13 332 907.13"/><line class="cls-12" x1="326" y1="911.13" x2="466" y2="911.13"/><text class="cls-18" transform="translate(351.5 906.87)"><tspan class="cls-60">PUT/transfer</tspan><tspan x="56.55" y="0">s</tspan></text><text class="cls-30" transform="translate(412.5 906.87)"><tspan class="cls-31">/&lt;ID</tspan><tspan x="19.33" y="0">&gt;</tspan></text><polygon class="cls-11" points="460 931.13 470 935.13 460 939.13 460 931.13"/><line class="cls-22" x1="321" y1="935.13" x2="466" y2="935.13"/><text class="cls-18" transform="translate(366 930.87)">HTT<tspan class="cls-23" x="15.55" y="0">P</tspan><tspan class="cls-24" x="20.75" y="0"> </tspan><tspan x="27.65" y="0">200</tspan></text><text class="cls-13" transform="translate(410 930.87)"><tspan class="cls-35">(OK</tspan><tspan x="14.34" y="0">)</tspan></text><line class="cls-12" x1="321" y1="959.13" x2="363" y2="959.13"/><line class="cls-12" x1="363" y1="959.13" x2="363" y2="972.13"/><line class="cls-12" x1="322" y1="972.13" x2="363" y2="972.13"/><polygon class="cls-11" points="332 968.13 322 972.13 332 976.13 332 968.13"/><text class="cls-13" transform="translate(328 954.87)">Commit<tspan class="cls-61" x="27.55" y="0"> </tspan><tspan x="32.44" y="0">reserved</tspan><tspan class="cls-62" x="64" y="0"> </tspan><tspan x="68.88" y="0">transfer</tspan></text><polygon class="cls-11" points="176 992.13 166 996.13 176 1000.13 176 992.13"/><line class="cls-12" x1="170" y1="996.13" x2="310" y2="996.13"/><text class="cls-18" transform="translate(195.5 991.87)"><tspan class="cls-60">PUT/transfer</tspan><tspan x="56.55" y="0">s</tspan></text><text class="cls-30" transform="translate(256.5 991.87)"><tspan class="cls-31">/&lt;ID</tspan><tspan x="19.33" y="0">&gt;</tspan></text><polygon class="cls-11" points="304 1016.13 314 1020.13 304 1024.13 304 1016.13"/><line class="cls-22" x1="165" y1="1020.13" x2="310" y2="1020.13"/><text class="cls-18" transform="translate(210 1015.87)">HTT<tspan class="cls-23" x="15.55" y="0">P</tspan><tspan class="cls-24" x="20.75" y="0"> </tspan><tspan x="27.65" y="0">200</tspan></text><text class="cls-13" transform="translate(254 1015.87)"><tspan class="cls-35">(OK</tspan><tspan x="14.34" y="0">)</tspan></text><polygon class="cls-11" points="30 1050.13 20 1054.13 30 1058.13 30 1050.13"/><line class="cls-12" x1="24" y1="1054.13" x2="159" y2="1054.13"/><text class="cls-13" transform="translate(45 1039.87)">Transaction<tspan class="cls-63" x="41.8" y="0"> </tspan><tspan x="48.54" y="0">successful,</tspan></text><text class="cls-13" transform="translate(37.5 1049.87)">you<tspan class="cls-64" x="12.9" y="0"> </tspan><tspan x="16.15" y="0">have</tspan><tspan class="cls-64" x="33.5" y="0"> </tspan><tspan x="36.75" y="0">paid</tspan><tspan class="cls-64" x="52.75" y="0"> </tspan><tspan x="56.01" y="0">1</tspan><tspan class="cls-65" x="60.45" y="0"> </tspan><tspan x="63.71" y="0">USD</tspan><tspan class="cls-64" x="80.15" y="0"> </tspan><tspan x="83.4" y="0">in</tspan><tspan class="cls-64" x="89.63" y="0"> </tspan><tspan x="92.88" y="0">fee</tspan></text></svg>