<?xml version="1.0" encoding="UTF-8" standalone="no"?><svg xmlns="http://www.w3.org/2000/svg" xmlns:xlink="http://www.w3.org/1999/xlink" contentScriptType="application/ecmascript" contentStyleType="text/css" height="1318px" preserveAspectRatio="none" style="width:999px;height:1318px;" version="1.1" viewBox="0 0 999 1318" width="999px" zoomAndPan="magnify"><defs><filter height="300%" id="f1ekqvt15vr9ct" width="300%" x="-1" y="-1"><feGaussianBlur result="blurOut" stdDeviation="2.0"/><feColorMatrix in="blurOut" result="blurOut2" type="matrix" values="0 0 0 0 0 0 0 0 0 0 0 0 0 0 0 0 0 0 .4 0"/><feOffset dx="4.0" dy="4.0" in="blurOut2" result="blurOut3"/><feBlend in="SourceGraphic" in2="blurOut3" mode="normal"/></filter><filter height="1" id="b1ekqvt15vr9ct0" width="1" x="0" y="0"><feFlood flood-color="#FF0000" result="flood"/><feComposite in="SourceGraphic" in2="flood" operator="over"/></filter><filter height="1" id="b1ekqvt15vr9ct1" width="1" x="0" y="0"><feFlood flood-color="#FFA500" result="flood"/><feComposite in="SourceGraphic" in2="flood" operator="over"/></filter></defs><g><text fill="#000000" font-family="sans-serif" font-size="14" font-weight="bold" lengthAdjust="spacingAndGlyphs" textLength="248" x="368.75" y="38.3125">Test Case: Authorized Transaction</text><text fill="#000000" font-family="sans-serif" font-size="14" font-weight="bold" lengthAdjust="spacingAndGlyphs" textLength="347" x="324.25" y="54.8008">Use Case: Merchant-Initiated Merchant Payment</text><rect fill="#FFFFFF" filter="url(#f1ekqvt15vr9ct)" height="885.6953" style="stroke: #000000; stroke-width: 1.0;" width="10" x="66.5" y="163.3516"/><rect fill="#FFFFFF" filter="url(#f1ekqvt15vr9ct)" height="247.4844" style="stroke: #000000; stroke-width: 1.0;" width="10" x="363.5" y="264.2832"/><rect fill="#FFFFFF" filter="url(#f1ekqvt15vr9ct)" height="188.8633" style="stroke: #000000; stroke-width: 1.0;" width="10" x="608.5" y="322.9043"/><rect fill="#FFFFFF" filter="url(#f1ekqvt15vr9ct)" height="188.8633" style="stroke: #000000; stroke-width: 1.0;" width="10" x="608.5" y="599.6992"/><rect fill="#FFFFFF" filter="url(#f1ekqvt15vr9ct)" height="247.4844" style="stroke: #000000; stroke-width: 1.0;" width="10" x="608.5" y="918.8047"/><rect fill="#FFFFFF" filter="url(#f1ekqvt15vr9ct)" height="247.4844" style="stroke: #000000; stroke-width: 1.0;" width="10" x="848.5" y="541.0781"/><rect fill="#FFFFFF" filter="url(#f1ekqvt15vr9ct)" height="306.1055" style="stroke: #000000; stroke-width: 1.0;" width="10" x="848.5" y="860.1836"/><line style="stroke: #000000; stroke-width: 1.0; stroke-dasharray: 5.0,5.0;" x1="71" x2="71" y1="116.7305" y2="1184.2891"/><line style="stroke: #000000; stroke-width: 1.0; stroke-dasharray: 5.0,5.0;" x1="368.5" x2="368.5" y1="116.7305" y2="1184.2891"/><line style="stroke: #000000; stroke-width: 1.0; stroke-dasharray: 5.0,5.0;" x1="613.5" x2="613.5" y1="116.7305" y2="1184.2891"/><line style="stroke: #000000; stroke-width: 1.0; stroke-dasharray: 5.0,5.0;" x1="853.5" x2="853.5" y1="116.7305" y2="1184.2891"/><rect fill="#FFFFFF" filter="url(#f1ekqvt15vr9ct)" height="30.4883" style="stroke: #000000; stroke-width: 1.5;" width="123" x="8" y="81.2422"/><text fill="#000000" font-family="sans-serif" font-size="14" lengthAdjust="spacingAndGlyphs" textLength="109" x="15" y="101.7773">Service Provider</text><rect fill="#FFFFFF" filter="url(#f1ekqvt15vr9ct)" height="30.4883" style="stroke: #000000; stroke-width: 1.5;" width="123" x="8" y="1183.2891"/><text fill="#000000" font-family="sans-serif" font-size="14" lengthAdjust="spacingAndGlyphs" textLength="109" x="15" y="1203.8242">Service Provider</text><rect fill="#FFFFFF" filter="url(#f1ekqvt15vr9ct)" height="46.9766" style="stroke: #000000; stroke-width: 1.5;" width="192" x="270.5" y="64.7539"/><text fill="#000000" font-family="sans-serif" font-size="14" lengthAdjust="spacingAndGlyphs" textLength="174" x="277.5" y="85.2891">Mobile Money Operator 1</text><text fill="#000000" font-family="sans-serif" font-size="14" lengthAdjust="spacingAndGlyphs" textLength="39" x="349" y="101.7773">Payee</text><rect fill="#FFFFFF" filter="url(#f1ekqvt15vr9ct)" height="46.9766" style="stroke: #000000; stroke-width: 1.5;" width="192" x="270.5" y="1183.2891"/><text fill="#000000" font-family="sans-serif" font-size="14" lengthAdjust="spacingAndGlyphs" textLength="174" x="277.5" y="1203.8242">Mobile Money Operator 1</text><text fill="#000000" font-family="sans-serif" font-size="14" lengthAdjust="spacingAndGlyphs" textLength="39" x="349" y="1220.3125">Payee</text><rect fill="#FFFFFF" filter="url(#f1ekqvt15vr9ct)" height="30.4883" style="stroke: #000000; stroke-width: 1.5;" width="78" x="572.5" y="81.2422"/><text fill="#000000" font-family="sans-serif" font-size="14" lengthAdjust="spacingAndGlyphs" textLength="64" x="579.5" y="101.7773">Mojaloop</text><rect fill="#FFFFFF" filter="url(#f1ekqvt15vr9ct)" height="30.4883" style="stroke: #000000; stroke-width: 1.5;" width="78" x="572.5" y="1183.2891"/><text fill="#000000" font-family="sans-serif" font-size="14" lengthAdjust="spacingAndGlyphs" textLength="64" x="579.5" y="1203.8242">Mojaloop</text><rect fill="#FFFFFF" filter="url(#f1ekqvt15vr9ct)" height="46.9766" style="stroke: #000000; stroke-width: 1.5;" width="192" x="755.5" y="64.7539"/><text fill="#000000" font-family="sans-serif" font-size="14" lengthAdjust="spacingAndGlyphs" textLength="174" x="762.5" y="85.2891">Mobile Money Operator 2</text><text fill="#000000" font-family="sans-serif" font-size="14" lengthAdjust="spacingAndGlyphs" textLength="37" x="835" y="101.7773">Payer</text><rect fill="#FFFFFF" filter="url(#f1ekqvt15vr9ct)" height="46.9766" style="stroke: #000000; stroke-width: 1.5;" width="192" x="755.5" y="1183.2891"/><text fill="#000000" font-family="sans-serif" font-size="14" lengthAdjust="spacingAndGlyphs" textLength="174" x="762.5" y="1203.8242">Mobile Money Operator 2</text><text fill="#000000" font-family="sans-serif" font-size="14" lengthAdjust="spacingAndGlyphs" textLength="37" x="835" y="1220.3125">Payer</text><rect fill="#FFFFFF" filter="url(#f1ekqvt15vr9ct)" height="885.6953" style="stroke: #000000; stroke-width: 1.0;" width="10" x="66.5" y="163.3516"/><rect fill="#FFFFFF" filter="url(#f1ekqvt15vr9ct)" height="247.4844" style="stroke: #000000; stroke-width: 1.0;" width="10" x="363.5" y="264.2832"/><rect fill="#FFFFFF" filter="url(#f1ekqvt15vr9ct)" height="188.8633" style="stroke: #000000; stroke-width: 1.0;" width="10" x="608.5" y="322.9043"/><rect fill="#FFFFFF" filter="url(#f1ekqvt15vr9ct)" height="188.8633" style="stroke: #000000; stroke-width: 1.0;" width="10" x="608.5" y="599.6992"/><rect fill="#FFFFFF" filter="url(#f1ekqvt15vr9ct)" height="247.4844" style="stroke: #000000; stroke-width: 1.0;" width="10" x="608.5" y="918.8047"/><rect fill="#FFFFFF" filter="url(#f1ekqvt15vr9ct)" height="247.4844" style="stroke: #000000; stroke-width: 1.0;" width="10" x="848.5" y="541.0781"/><rect fill="#FFFFFF" filter="url(#f1ekqvt15vr9ct)" height="306.1055" style="stroke: #000000; stroke-width: 1.0;" width="10" x="848.5" y="860.1836"/><polygon fill="#FF0000" points="356.5,159.3516,366.5,163.3516,356.5,167.3516,360.5,163.3516" style="stroke: #FF0000; stroke-width: 1.0;"/><line style="stroke: #FF0000; stroke-width: 1.0;" x1="76.5" x2="362.5" y1="163.3516" y2="163.3516"/><text fill="#000000" font-family="sans-serif" font-size="13" font-weight="bold" lengthAdjust="spacingAndGlyphs" textLength="147" x="147" y="143.2988">POST/TRANSACTIONS</text><text fill="#000000" font-family="sans-serif" font-size="13" lengthAdjust="spacingAndGlyphs" textLength="0" x="302" y="143.2988"/><text fill="#000000" font-family="sans-serif" font-size="13" lengthAdjust="spacingAndGlyphs" textLength="269" x="90" y="158.6094">(Define X-Callback-URL Header Parameter)</text><polygon fill="#FF0000" points="87.5,188.6621,77.5,192.6621,87.5,196.6621,83.5,192.6621" style="stroke: #FF0000; stroke-width: 1.0;"/><line style="stroke: #FF0000; stroke-width: 1.0; stroke-dasharray: 2.0,2.0;" x1="81.5" x2="367.5" y1="192.6621" y2="192.6621"/><text fill="#000000" font-family="sans-serif" font-size="13" font-weight="bold" lengthAdjust="spacingAndGlyphs" textLength="67" x="189" y="187.9199">HTTP 202</text><line style="stroke: #000000; stroke-width: 1.0;" x1="368.5" x2="410.5" y1="221.9727" y2="221.9727"/><line style="stroke: #000000; stroke-width: 1.0;" x1="410.5" x2="410.5" y1="221.9727" y2="234.9727"/><line style="stroke: #000000; stroke-width: 1.0;" x1="369.5" x2="410.5" y1="234.9727" y2="234.9727"/><polygon fill="#000000" points="379.5,230.9727,369.5,234.9727,379.5,238.9727,375.5,234.9727" style="stroke: #000000; stroke-width: 1.0;"/><text fill="#000000" font-family="sans-serif" font-size="13" lengthAdjust="spacingAndGlyphs" textLength="120" x="375.5" y="217.2305">Internal Processing</text><polygon fill="#FFA500" points="601.5,260.2832,611.5,264.2832,601.5,268.2832,605.5,264.2832" style="stroke: #FFA500; stroke-width: 1.0;"/><line style="stroke: #FFA500; stroke-width: 1.0;" x1="373.5" x2="607.5" y1="264.2832" y2="264.2832"/><text fill="#000000" font-family="sans-serif" font-size="13" font-weight="bold" lengthAdjust="spacingAndGlyphs" textLength="180" x="403.5" y="259.541">POST/transactionRequests</text><polygon fill="#FFA500" points="384.5,289.5938,374.5,293.5938,384.5,297.5938,380.5,293.5938" style="stroke: #FFA500; stroke-width: 1.0;"/><line style="stroke: #FFA500; stroke-width: 1.0; stroke-dasharray: 2.0,2.0;" x1="378.5" x2="612.5" y1="293.5938" y2="293.5938"/><text fill="#000000" font-family="sans-serif" font-size="13" font-weight="bold" lengthAdjust="spacingAndGlyphs" textLength="67" x="460" y="288.8516">HTTP 202</text><polygon fill="#FFA500" points="841.5,318.9043,851.5,322.9043,841.5,326.9043,845.5,322.9043" style="stroke: #FFA500; stroke-width: 1.0;"/><line style="stroke: #FFA500; stroke-width: 1.0;" x1="618.5" x2="847.5" y1="322.9043" y2="322.9043"/><text fill="#000000" font-family="sans-serif" font-size="13" font-weight="bold" lengthAdjust="spacingAndGlyphs" textLength="180" x="644" y="318.1621">POST/transactionRequests</text><polygon fill="#FFA500" points="629.5,348.2148,619.5,352.2148,629.5,356.2148,625.5,352.2148" style="stroke: #FFA500; stroke-width: 1.0;"/><line style="stroke: #FFA500; stroke-width: 1.0; stroke-dasharray: 2.0,2.0;" x1="623.5" x2="852.5" y1="352.2148" y2="352.2148"/><text fill="#000000" font-family="sans-serif" font-size="13" font-weight="bold" lengthAdjust="spacingAndGlyphs" textLength="67" x="702.5" y="347.4727">HTTP 202</text><line style="stroke: #000000; stroke-width: 1.0;" x1="853.5" x2="895.5" y1="381.5254" y2="381.5254"/><line style="stroke: #000000; stroke-width: 1.0;" x1="895.5" x2="895.5" y1="381.5254" y2="394.5254"/><line style="stroke: #000000; stroke-width: 1.0;" x1="854.5" x2="895.5" y1="394.5254" y2="394.5254"/><polygon fill="#000000" points="864.5,390.5254,854.5,394.5254,864.5,398.5254,860.5,394.5254" style="stroke: #000000; stroke-width: 1.0;"/><text fill="#000000" font-family="sans-serif" font-size="13" lengthAdjust="spacingAndGlyphs" textLength="120" x="860.5" y="376.7832">Internal Processing</text><polygon fill="#FFA500" points="629.5,419.8359,619.5,423.8359,629.5,427.8359,625.5,423.8359" style="stroke: #FFA500; stroke-width: 1.0;"/><line style="stroke: #FFA500; stroke-width: 1.0;" x1="623.5" x2="852.5" y1="423.8359" y2="423.8359"/><text fill="#000000" font-family="sans-serif" font-size="13" font-weight="bold" lengthAdjust="spacingAndGlyphs" textLength="203" x="634.5" y="419.0938">PUT/transactionRequests/{ID}</text><polygon fill="#FFA500" points="841.5,449.1465,851.5,453.1465,841.5,457.1465,845.5,453.1465" style="stroke: #FFA500; stroke-width: 1.0;"/><line style="stroke: #FFA500; stroke-width: 1.0; stroke-dasharray: 2.0,2.0;" x1="618.5" x2="847.5" y1="453.1465" y2="453.1465"/><text fill="#000000" font-family="sans-serif" font-size="13" font-weight="bold" lengthAdjust="spacingAndGlyphs" textLength="67" x="702.5" y="448.4043">HTTP 200</text><polygon fill="#FFA500" points="384.5,478.457,374.5,482.457,384.5,486.457,380.5,482.457" style="stroke: #FFA500; stroke-width: 1.0;"/><line style="stroke: #FFA500; stroke-width: 1.0;" x1="378.5" x2="607.5" y1="482.457" y2="482.457"/><text fill="#000000" font-family="sans-serif" font-size="13" font-weight="bold" lengthAdjust="spacingAndGlyphs" textLength="203" x="389.5" y="477.7148">PUT/transactionRequests/{ID}</text><polygon fill="#FFA500" points="601.5,507.7676,611.5,511.7676,601.5,515.7676,605.5,511.7676" style="stroke: #FFA500; stroke-width: 1.0;"/><line style="stroke: #FFA500; stroke-width: 1.0; stroke-dasharray: 2.0,2.0;" x1="368.5" x2="607.5" y1="511.7676" y2="511.7676"/><text fill="#000000" font-family="sans-serif" font-size="13" font-weight="bold" lengthAdjust="spacingAndGlyphs" textLength="67" x="457.5" y="507.0254">HTTP 200</text><polygon fill="#FFA500" points="624.5,537.0781,614.5,541.0781,624.5,545.0781,620.5,541.0781" style="stroke: #FFA500; stroke-width: 1.0;"/><line style="stroke: #FFA500; stroke-width: 1.0;" x1="618.5" x2="847.5" y1="541.0781" y2="541.0781"/><text fill="#000000" font-family="sans-serif" font-size="13" font-weight="bold" lengthAdjust="spacingAndGlyphs" textLength="88" x="687" y="536.3359">POST/quotes</text><polygon fill="#FFA500" points="836.5,566.3887,846.5,570.3887,836.5,574.3887,840.5,570.3887" style="stroke: #FFA500; stroke-width: 1.0;"/><line style="stroke: #FFA500; stroke-width: 1.0; stroke-dasharray: 2.0,2.0;" x1="613.5" x2="842.5" y1="570.3887" y2="570.3887"/><text fill="#000000" font-family="sans-serif" font-size="13" font-weight="bold" lengthAdjust="spacingAndGlyphs" textLength="67" x="697.5" y="565.6465">HTTP 202</text><polygon fill="#FFA500" points="379.5,595.6992,369.5,599.6992,379.5,603.6992,375.5,599.6992" style="stroke: #FFA500; stroke-width: 1.0;"/><line style="stroke: #FFA500; stroke-width: 1.0;" x1="373.5" x2="607.5" y1="599.6992" y2="599.6992"/><text fill="#000000" font-family="sans-serif" font-size="13" font-weight="bold" lengthAdjust="spacingAndGlyphs" textLength="88" x="442.5" y="594.957">POST/quotes</text><polygon fill="#FFA500" points="596.5,625.0098,606.5,629.0098,596.5,633.0098,600.5,629.0098" style="stroke: #FFA500; stroke-width: 1.0;"/><line style="stroke: #FFA500; stroke-width: 1.0; stroke-dasharray: 2.0,2.0;" x1="368.5" x2="602.5" y1="629.0098" y2="629.0098"/><text fill="#000000" font-family="sans-serif" font-size="13" font-weight="bold" lengthAdjust="spacingAndGlyphs" textLength="67" x="455" y="624.2676">HTTP 202</text><line style="stroke: #000000; stroke-width: 1.0;" x1="368.5" x2="410.5" y1="658.3203" y2="658.3203"/><line style="stroke: #000000; stroke-width: 1.0;" x1="410.5" x2="410.5" y1="658.3203" y2="671.3203"/><line style="stroke: #000000; stroke-width: 1.0;" x1="369.5" x2="410.5" y1="671.3203" y2="671.3203"/><polygon fill="#000000" points="379.5,667.3203,369.5,671.3203,379.5,675.3203,375.5,671.3203" style="stroke: #000000; stroke-width: 1.0;"/><text fill="#000000" font-family="sans-serif" font-size="13" lengthAdjust="spacingAndGlyphs" textLength="120" x="375.5" y="653.5781">Internal Processing</text><polygon fill="#FFA500" points="596.5,696.6309,606.5,700.6309,596.5,704.6309,600.5,700.6309" style="stroke: #FFA500; stroke-width: 1.0;"/><line style="stroke: #FFA500; stroke-width: 1.0;" x1="368.5" x2="602.5" y1="700.6309" y2="700.6309"/><text fill="#000000" font-family="sans-serif" font-size="13" font-weight="bold" lengthAdjust="spacingAndGlyphs" textLength="111" x="433" y="695.8887">PUT/quotes/{ID}</text><polygon fill="#FFA500" points="379.5,725.9414,369.5,729.9414,379.5,733.9414,375.5,729.9414" style="stroke: #FFA500; stroke-width: 1.0;"/><line style="stroke: #FFA500; stroke-width: 1.0; stroke-dasharray: 2.0,2.0;" x1="373.5" x2="607.5" y1="729.9414" y2="729.9414"/><text fill="#000000" font-family="sans-serif" font-size="13" font-weight="bold" lengthAdjust="spacingAndGlyphs" textLength="67" x="455" y="725.1992">HTTP 200</text><polygon fill="#FFA500" points="836.5,755.252,846.5,759.252,836.5,763.252,840.5,759.252" style="stroke: #FFA500; stroke-width: 1.0;"/><line style="stroke: #FFA500; stroke-width: 1.0;" x1="618.5" x2="842.5" y1="759.252" y2="759.252"/><text fill="#000000" font-family="sans-serif" font-size="13" font-weight="bold" lengthAdjust="spacingAndGlyphs" textLength="111" x="678" y="754.5098">PUT/quotes/{ID}</text><polygon fill="#FFA500" points="624.5,784.5625,614.5,788.5625,624.5,792.5625,620.5,788.5625" style="stroke: #FFA500; stroke-width: 1.0;"/><line style="stroke: #FFA500; stroke-width: 1.0; stroke-dasharray: 2.0,2.0;" x1="618.5" x2="852.5" y1="788.5625" y2="788.5625"/><text fill="#000000" font-family="sans-serif" font-size="13" font-weight="bold" lengthAdjust="spacingAndGlyphs" textLength="67" x="700" y="783.8203">HTTP 200</text><line style="stroke: #000000; stroke-width: 1.0;" x1="853.5" x2="895.5" y1="817.873" y2="817.873"/><line style="stroke: #000000; stroke-width: 1.0;" x1="895.5" x2="895.5" y1="817.873" y2="830.873"/><line style="stroke: #000000; stroke-width: 1.0;" x1="854.5" x2="895.5" y1="830.873" y2="830.873"/><polygon fill="#000000" points="864.5,826.873,854.5,830.873,864.5,834.873,860.5,830.873" style="stroke: #000000; stroke-width: 1.0;"/><text fill="#000000" font-family="sans-serif" font-size="13" lengthAdjust="spacingAndGlyphs" textLength="120" x="860.5" y="813.1309">Internal Processing</text><polygon fill="#FFA500" points="624.5,856.1836,614.5,860.1836,624.5,864.1836,620.5,860.1836" style="stroke: #FFA500; stroke-width: 1.0;"/><line style="stroke: #FFA500; stroke-width: 1.0;" x1="618.5" x2="847.5" y1="860.1836" y2="860.1836"/><text fill="#000000" font-family="sans-serif" font-size="13" font-weight="bold" lengthAdjust="spacingAndGlyphs" textLength="111" x="675.5" y="855.4414">POST/TRANSFER</text><polygon fill="#FFA500" points="836.5,885.4941,846.5,889.4941,836.5,893.4941,840.5,889.4941" style="stroke: #FFA500; stroke-width: 1.0;"/><line style="stroke: #FFA500; stroke-width: 1.0; stroke-dasharray: 2.0,2.0;" x1="613.5" x2="842.5" y1="889.4941" y2="889.4941"/><text fill="#000000" font-family="sans-serif" font-size="13" font-weight="bold" lengthAdjust="spacingAndGlyphs" textLength="67" x="697.5" y="884.752">HTTP 202</text><polygon fill="#FFA500" points="379.5,914.8047,369.5,918.8047,379.5,922.8047,375.5,918.8047" style="stroke: #FFA500; stroke-width: 1.0;"/><line style="stroke: #FFA500; stroke-width: 1.0;" x1="373.5" x2="607.5" y1="918.8047" y2="918.8047"/><text fill="#000000" font-family="sans-serif" font-size="13" font-weight="bold" lengthAdjust="spacingAndGlyphs" textLength="111" x="431" y="914.0625">POST/TRANSFER</text><polygon fill="#FFA500" points="596.5,944.1152,606.5,948.1152,596.5,952.1152,600.5,948.1152" style="stroke: #FFA500; stroke-width: 1.0;"/><line style="stroke: #FFA500; stroke-width: 1.0; stroke-dasharray: 2.0,2.0;" x1="368.5" x2="602.5" y1="948.1152" y2="948.1152"/><text fill="#000000" font-family="sans-serif" font-size="13" font-weight="bold" lengthAdjust="spacingAndGlyphs" textLength="67" x="455" y="943.373">HTTP 202</text><line style="stroke: #000000; stroke-width: 1.0;" x1="368.5" x2="410.5" y1="977.4258" y2="977.4258"/><line style="stroke: #000000; stroke-width: 1.0;" x1="410.5" x2="410.5" y1="977.4258" y2="990.4258"/><line style="stroke: #000000; stroke-width: 1.0;" x1="369.5" x2="410.5" y1="990.4258" y2="990.4258"/><polygon fill="#000000" points="379.5,986.4258,369.5,990.4258,379.5,994.4258,375.5,990.4258" style="stroke: #000000; stroke-width: 1.0;"/><text fill="#000000" font-family="sans-serif" font-size="13" lengthAdjust="spacingAndGlyphs" textLength="120" x="375.5" y="972.6836">Internal Processing</text><polygon fill="#FF0000" points="87.5,1015.7363,77.5,1019.7363,87.5,1023.7363,83.5,1019.7363" style="stroke: #FF0000; stroke-width: 1.0;"/><line style="stroke: #FF0000; stroke-width: 1.0; stroke-dasharray: 2.0,2.0;" x1="81.5" x2="367.5" y1="1019.7363" y2="1019.7363"/><text fill="#000000" font-family="sans-serif" font-size="13" font-weight="bold" lengthAdjust="spacingAndGlyphs" textLength="27" x="151" y="1014.9941">PUT</text><text fill="#000000" font-family="sans-serif" font-size="13" font-style="italic" font-weight="bold" lengthAdjust="spacingAndGlyphs" textLength="116" x="178" y="1014.9941">/X-Callback-URL</text><text fill="#000000" font-family="sans-serif" font-size="13" font-weight="bold" lengthAdjust="spacingAndGlyphs" textLength="0" x="298" y="1014.9941"/><polygon fill="#FF0000" points="356.5,1045.0469,366.5,1049.0469,356.5,1053.0469,360.5,1049.0469" style="stroke: #FF0000; stroke-width: 1.0;"/><line style="stroke: #FF0000; stroke-width: 1.0; stroke-dasharray: 2.0,2.0;" x1="71.5" x2="362.5" y1="1049.0469" y2="1049.0469"/><text fill="#000000" font-family="sans-serif" font-size="13" font-weight="bold" lengthAdjust="spacingAndGlyphs" textLength="67" x="186.5" y="1044.3047">HTTP 204</text><polygon fill="#FFA500" points="596.5,1074.3574,606.5,1078.3574,596.5,1082.3574,600.5,1078.3574" style="stroke: #FFA500; stroke-width: 1.0;"/><line style="stroke: #FFA500; stroke-width: 1.0;" x1="368.5" x2="602.5" y1="1078.3574" y2="1078.3574"/><text fill="#000000" font-family="sans-serif" font-size="13" font-weight="bold" lengthAdjust="spacingAndGlyphs" textLength="103" x="437" y="1073.6152">PUT/TRANSFER</text><polygon fill="#FFA500" points="379.5,1103.668,369.5,1107.668,379.5,1111.668,375.5,1107.668" style="stroke: #FFA500; stroke-width: 1.0;"/><line style="stroke: #FFA500; stroke-width: 1.0; stroke-dasharray: 2.0,2.0;" x1="373.5" x2="607.5" y1="1107.668" y2="1107.668"/><text fill="#000000" font-family="sans-serif" font-size="13" font-weight="bold" lengthAdjust="spacingAndGlyphs" textLength="67" x="455" y="1102.9258">HTTP 200</text><polygon fill="#FFA500" points="836.5,1132.9785,846.5,1136.9785,836.5,1140.9785,840.5,1136.9785" style="stroke: #FFA500; stroke-width: 1.0;"/><line style="stroke: #FFA500; stroke-width: 1.0;" x1="618.5" x2="842.5" y1="1136.9785" y2="1136.9785"/><text fill="#000000" font-family="sans-serif" font-size="13" font-weight="bold" lengthAdjust="spacingAndGlyphs" textLength="103" x="682" y="1132.2363">PUT/TRANSFER</text><polygon fill="#FFA500" points="624.5,1162.2891,614.5,1166.2891,624.5,1170.2891,620.5,1166.2891" style="stroke: #FFA500; stroke-width: 1.0;"/><line style="stroke: #FFA500; stroke-width: 1.0; stroke-dasharray: 2.0,2.0;" x1="618.5" x2="852.5" y1="1166.2891" y2="1166.2891"/><text fill="#000000" font-family="sans-serif" font-size="13" font-weight="bold" lengthAdjust="spacingAndGlyphs" textLength="67" x="700" y="1161.5469">HTTP 200</text><text fill="#888888" font-family="sans-serif" font-size="10" lengthAdjust="spacingAndGlyphs" textLength="128" x="859.5" y="12.668">GSMA - Inclusive Tech Lab</text><rect fill="#DDDDDD" height="63.4648" rx="5" ry="5" style="stroke: #000000; stroke-width: 1.0;" width="162" x="816.5" y="1244.2656"/><text fill="#000000" font-family="sans-serif" font-size="14" font-weight="bold" lengthAdjust="spacingAndGlyphs" textLength="0" x="827.5" y="1264.8008"/><text fill="#000000" font-family="sans-serif" font-size="14" font-weight="bold" lengthAdjust="spacingAndGlyphs" textLength="35" x="848.5" y="1264.8008">Type</text><text fill="#FF0000" filter="url(#b1ekqvt15vr9ct0)" font-family="sans-serif" font-size="14" lengthAdjust="spacingAndGlyphs" textLength="21" x="822.5" y="1281.2891">___</text><text fill="#000000" font-family="sans-serif" font-size="14" lengthAdjust="spacingAndGlyphs" textLength="121" x="847.5" y="1281.2891">Mobile Money API</text><text fill="#FFA500" filter="url(#b1ekqvt15vr9ct1)" font-family="sans-serif" font-size="14" lengthAdjust="spacingAndGlyphs" textLength="21" x="822.5" y="1297.7773">___</text><text fill="#000000" font-family="sans-serif" font-size="14" lengthAdjust="spacingAndGlyphs" textLength="90" x="847.5" y="1297.7773">Mojaloop API</text><line style="stroke: #000000; stroke-width: 1.0;" x1="822.5" x2="972.5" y1="1251.2656" y2="1251.2656"/><line style="stroke: #000000; stroke-width: 1.0;" x1="822.5" x2="972.5" y1="1267.7539" y2="1267.7539"/><line style="stroke: #000000; stroke-width: 1.0;" x1="822.5" x2="972.5" y1="1284.2422" y2="1284.2422"/><line style="stroke: #000000; stroke-width: 1.0;" x1="822.5" x2="972.5" y1="1300.7305" y2="1300.7305"/><line style="stroke: #000000; stroke-width: 1.0;" x1="822.5" x2="822.5" y1="1251.2656" y2="1300.7305"/><line style="stroke: #000000; stroke-width: 1.0;" x1="843.5" x2="843.5" y1="1251.2656" y2="1300.7305"/><line style="stroke: #000000; stroke-width: 1.0;" x1="972.5" x2="972.5" y1="1251.2656" y2="1300.7305"/><!--
@startuml
skinparam sequenceMessageAlign center
skinparam sequence {
	ArrowColor Black
	ActorBorderColor Black
	LifeLineBorderColor Black

	ParticipantBorderColor Black
	ParticipantBackgroundColor None
	ParticipantFontColor Black

	ActorBackgroundColor None
	ActorFontColor Black
}

title Test Case: Authorized Transaction \n Use Case: Merchant-Initiated Merchant Payment
header GSMA - Inclusive Tech Lab

participant "Service Provider" as sp
participant "Mobile Money Operator 1 \n Payee" as mmo1
participant "Mojaloop" as switch
participant "Mobile Money Operator 2 \n Payer" as mmo2


sp -[#Red]> mmo1: ** POST/TRANSACTIONS ** \n (Define X-Callback-URL Header Parameter)
activate sp
mmo1 - -[#Red]> sp: **HTTP 202**
mmo1 -> mmo1: Internal Processing


mmo1 -[#Orange]> switch: ** POST/transactionRequests **
activate mmo1
switch - -[#Orange]> mmo1: ** HTTP 202 **
switch -[#Orange]> mmo2: ** POST/transactionRequests  **
activate switch
mmo2 - -[#Orange]> switch: ** HTTP 202 **
mmo2 -> mmo2: Internal Processing
mmo2 -[#Orange]> switch: ** PUT/transactionRequests/{ID} **
switch - -[#Orange]> mmo2: ** HTTP 200 **
switch -[#Orange]> mmo1: ** PUT/transactionRequests/{ID} **
mmo1 - -[#Orange]> switch: ** HTTP 200 **
deactivate switch
deactivate mmo1


mmo2 -[#Orange]> switch: ** POST/quotes **
activate mmo2
switch - -[#Orange]> mmo2: ** HTTP 202 **
switch -[#Orange]> mmo1: ** POST/quotes  **
activate switch
mmo1 - -[#Orange]> switch: ** HTTP 202 **
mmo1 -> mmo1: Internal Processing
mmo1 -[#Orange]> switch: ** PUT/quotes/{ID} **
switch - -[#Orange]> mmo1: ** HTTP 200 **
switch -[#Orange]> mmo2: ** PUT/quotes/{ID} **
mmo2 - -[#Orange]> switch: ** HTTP 200 **
deactivate switch
deactivate mmo2


mmo2 -> mmo2: Internal Processing
mmo2 -[#Orange]> switch: ** POST/TRANSFER **
activate mmo2
switch - -[#Orange]> mmo2: ** HTTP 202 **
switch -[#Orange]> mmo1: ** POST/TRANSFER  **
activate switch
mmo1 - -[#Orange]> switch: ** HTTP 202 **
mmo1 -> mmo1: Internal Processing

mmo1 - -[#Red]> sp: ** PUT///X-Callback-URL// **
sp - -[#Red]> mmo1: ** HTTP 204 **
deactivate sp

mmo1 -[#Orange]> switch: ** PUT/TRANSFER **
switch - -[#Orange]> mmo1: ** HTTP 200 **
switch -[#Orange]> mmo2: ** PUT/TRANSFER **
mmo2 - -[#Orange]> switch: ** HTTP 200 **
deactivate switch
deactivate mmo2



legend bottom right
|= |= Type |
|<back:#Red><color:#Red>___</color></back>| Mobile Money API |
|<back:#Orange><color:#Orange>___</color></back>| Mojaloop API |
endlegend

@enduml

PlantUML version 1.2019.09(Mon Aug 26 13:19:51 BRT 2019)
(GPL source distribution)
Java Runtime: OpenJDK Runtime Environment
JVM: OpenJDK 64-Bit Server VM
Java Version: 14+36-1461
Operating System: Mac OS X
OS Version: 10.15.5
Default Encoding: UTF-8
Language: en
Country: BR
--></g></svg>